# xmcd
#
# Track frame offsets:
# 150
# 17498
# 34114
# 50190
# 63282
# 81200
# 94581
# 106094
# 122780
# 152826
#
# Disc length: 2166 seconds
#
# Revision: 0
# Processed by: cddbd v1.4PL0 Copyright (c) Steve Scherf et al.
# Submitted via: Axialis_AX_CDPlayer 2.6
#
DISCID=7708740a
DTITLE=Willie Nelson - Willie Nelson Wishes you a merry Christmas
DYEAR=1900
DGENRE=
TTITLE0=Away in a manger
TTITLE1=Deck the halls
TTITLE2=It came upon a midnight clear
TTITLE3=Joy to the world
TTITLE4=The first Noel
TTITLE5=O little town of Bethlehem
TTITLE6=O come all ye faithful
TTITLE7=Pretty paper
TTITLE8=Silent night
TTITLE9=We wish you a merry Christmas
EXTD=
EXTT0=
EXTT1=
EXTT2=
EXTT3=
EXTT4=
EXTT5=
EXTT6=
EXTT7=
EXTT8=
EXTT9=
PLAYORDER=
